<svg width="200" height="300" xmlns="http://www.w3.org/2000/svg" viewbox="0 0 200 300">

 <title>Chef</title>
 <g>
  <title>background</title>
 </g>
 <g>
  <title>Layer 1</title>
  <ellipse id="svg_3" opacity="0.1" fill="#6c63ff" ry="7.66667" rx="86.65329" cy="273.06152" cx="107.41595"/>
  <rect id="svg_81" fill="#535461" height="116.43582" width="5.17493" y="27.73877" x="108.64969"/>
  <path id="svg_82" fill="#65617d" d="m146.327022,143.82094l-0.32775,5.24394l-0.45709,7.40016l-0.18978,3.08767l-0.45709,7.40879l-0.19835,3.08772l-0.45715,7.4001l-5.218,84.18746a14.25849,14.25849 0 0 1 -14.231,13.37719l-27.108,0a14.25052,14.25052 0 0 1 -14.22241,-13.37719l-5.22667,-84.18746l-0.45715,-7.4001l-0.18972,-3.08772l-0.46578,-7.40879l-0.18972,-3.08767l-0.45714,-7.40016l-0.32775,-5.24394a7.38646,7.38646 0 0 1 7.37426,-7.84l55.44072,0a7.3796,7.3796 0 0 1 7.36557,7.84z"/>
  <polygon id="svg_83" fill="#9d9cb5" points="145.9990234375,149.06500244140625 145.5419921875,156.46502685546875 76.9310302734375,156.46502685546875 76.4739990234375,149.06500244140625 145.9990234375,149.06500244140625 "/>
  <polygon id="svg_84" fill="#9d9cb5" points="145.35198974609375,159.552978515625 144.89501953125,166.96197509765625 77.58697509765625,166.96197509765625 77.1209716796875,159.552978515625 145.35198974609375,159.552978515625 "/>
  <polygon id="svg_85" fill="#9d9cb5" points="144.697021484375,170.04901123046875 144.239990234375,177.448974609375 78.2340087890625,177.448974609375 77.7769775390625,170.04901123046875 144.697021484375,170.04901123046875 "/>
  <path id="svg_86" fill="#6c63ff" d="m68.575882,71.38146c30.12016,21.788 42.66083,55.86906 42.66083,55.86906s-36.29374,-1.24438 -66.41389,-23.03243s-42.66084,-55.86906 -42.66084,-55.86906s36.29375,1.24439 66.4139,23.03243z"/>
  <path id="svg_87" stroke-width="2" stroke-miterlimit="10" stroke="#535461" fill="none" d="m2.161982,48.34903s37.67077,20.91114 49.75571,38.22249s59.319,40.679 59.319,40.679"/>
  <path id="svg_88" fill="#6c63ff" d="m88.016732,27.48158c16.39418,11.85908 23.22,30.40913 23.22,30.40913s-19.75442,-0.67731 -36.14861,-12.53638s-23.22,-30.40913 -23.22,-30.40913s19.75442,0.67731 36.14861,12.53638z"/>
  <path id="svg_89" stroke-width="2" stroke-miterlimit="10" stroke="#535461" fill="none" d="m51.868122,14.9452s20.50393,11.38178 27.08167,20.80422s32.28692,22.14129 32.28692,22.14129"/>
  <path id="svg_90" fill="#6c63ff" d="m135.060212,56.94655c-18.83028,20.69669 -22.81359,47.739 -22.81359,47.739s26.5466,-6.51371 45.37688,-27.21041s22.81359,-47.739 22.81359,-47.739s-26.5466,6.51371 -45.37688,27.21041z"/>
  <path id="svg_91" stroke-width="2" stroke-miterlimit="10" stroke="#535461" fill="none" d="m180.437092,29.73609s-24.52823,21.21505 -30.76188,35.8324s-37.42859,39.117 -37.42859,39.117"/>
 </g>
</svg>